{
  "accessors": [
    {
      "bufferView": 2,
      "componentType": 5126,
      "count": 6607,
      "max": [
        0.14302197098731995,
        0.1430220752954483,
        0.2884064018726349
      ],
      "min": [
        -0.14302197098731995,
        -0.14302198588848114,
        -0.000540896609891206
      ],
      "type": "VEC3"
    },
    {
      "bufferView": 2,
      "byteOffset": 79284,
      "componentType": 5126,
      "count": 6607,
      "max": [
        0.9999595880508423,
        0.9999595284461975,
        0.9999993443489075
      ],
      "min": [
        -0.9999595880508423,
        -0.9999595880508423,
        -1.0
      ],
      "type": "VEC3"
    },
    {
      "bufferView": 3,
      "componentType": 5126,
      "count": 6607,
      "max": [
        0.9997901916503906,
        0.9997901320457458,
        1.0,
        -1.0
      ],
      "min": [
        -0.9997901916503906,
        -0.9997901916503906,
        -1.0,
        -1.0
      ],
      "type": "VEC4"
    },
    {
      "bufferView": 1,
      "componentType": 5126,
      "count": 6607,
      "max": [
        0.9865564703941345,
        0.9999783635139465
      ],
      "min": [
        2.0159950508968905e-05,
        1.6927719116210938e-05
      ],
      "type": "VEC2"
    },
    {
      "bufferView": 1,
      "byteOffset": 52856,
      "componentType": 5126,
      "count": 6607,
      "max": [
        0.9865564703941345,
        0.9999783635139465
      ],
      "min": [
        2.0159950508968905e-05,
        1.6927719116210938e-05
      ],
      "type": "VEC2"
    },
    {
      "bufferView": 1,
      "byteOffset": 105712,
      "componentType": 5126,
      "count": 6607,
      "max": [
        0.9865564703941345,
        0.9999783635139465
      ],
      "min": [
        2.0159950508968905e-05,
        1.6927719116210938e-05
      ],
      "type": "VEC2"
    },
    {
      "bufferView": 1,
      "byteOffset": 158568,
      "componentType": 5126,
      "count": 6607,
      "max": [
        0.9865564703941345,
        0.9999783635139465
      ],
      "min": [
        2.0159950508968905e-05,
        1.6927719116210938e-05
      ],
      "type": "VEC2"
    },
    {
      "bufferView": 1,
      "byteOffset": 211424,
      "componentType": 5126,
      "count": 6607,
      "max": [
        0.9865564703941345,
        0.9999783635139465
      ],
      "min": [
        2.0159950508968905e-05,
        1.6927719116210938e-05
      ],
      "type": "VEC2"
    },
    {
      "bufferView": 0,
      "componentType": 5125,
      "count": 36702,
      "type": "SCALAR"
    },
    {
      "bufferView": 2,
      "byteOffset": 158568,
      "componentType": 5126,
      "count": 37134,
      "max": [
        0.5658878684043884,
        0.5534164905548096,
        1.7875497341156006
      ],
      "min": [
        -0.5723717212677002,
        -0.5935506820678711,
        0.19719907641410828
      ],
      "type": "VEC3"
    },
    {
      "bufferView": 2,
      "byteOffset": 604176,
      "componentType": 5126,
      "count": 37134,
      "max": [
        0.9997258186340332,
        0.9999802708625793,
        0.9999275803565979
      ],
      "min": [
        -0.9998345971107483,
        -0.9998573660850525,
        -0.8959982395172119
      ],
      "type": "VEC3"
    },
    {
      "bufferView": 3,
      "byteOffset": 105712,
      "componentType": 5126,
      "count": 37134,
      "max": [
        0.9999721050262451,
        0.9999760985374451,
        0.9999207258224487,
        1.0
      ],
      "min": [
        -0.9998646974563599,
        -0.9999675154685974,
        -0.9983739852905273,
        -1.0
      ],
      "type": "VEC4"
    },
    {
      "bufferView": 1,
      "byteOffset": 264280,
      "componentType": 5126,
      "count": 37134,
      "max": [
        0.9907342791557312,
        0.9979339838027954
      ],
      "min": [
        0.019287001341581345,
        0.004608999937772751
      ],
      "type": "VEC2"
    },
    {
      "bufferView": 0,
      "byteOffset": 146808,
      "componentType": 5125,
      "count": 68904,
      "type": "SCALAR"
    }
  ],
  "asset": {
    "extras": {
      "author": "AllQuad (https://sketchfab.com/AllQuad)",
      "license": "CC-BY-4.0 (http://creativecommons.org/licenses/by/4.0/)",
      "source": "https://sketchfab.com/3d-models/free-dyspis-lutescens-potted-palm-92f75abd656049608248cf76a8c88136",
      "title": "[FREE] Dyspis Lutescens - Potted Palm"
    },
    "generator": "Sketchfab-16.54.0",
    "version": "2.0"
  },
  "bufferViews": [
    {
      "buffer": 0,
      "byteLength": 422424,
      "name": "floatBufferViews",
      "target": 34963
    },
    {
      "buffer": 0,
      "byteLength": 561352,
      "byteOffset": 422424,
      "byteStride": 8,
      "name": "floatBufferViews",
      "target": 34962
    },
    {
      "buffer": 0,
      "byteLength": 1049784,
      "byteOffset": 983776,
      "byteStride": 12,
      "name": "floatBufferViews",
      "target": 34962
    },
    {
      "buffer": 0,
      "byteLength": 699856,
      "byteOffset": 2033560,
      "byteStride": 16,
      "name": "floatBufferViews",
      "target": 34962
    }
  ],
  "buffers": [
    {
      "byteLength": 2733416,
      "uri": "scene.bin"
    }
  ],
  "extensionsUsed": [
    "KHR_materials_specular"
  ],
  "images": [
    {
      "uri": "textures/DARK_PLASTIC_POT_Mat_baseColor.jpeg"
    },
    {
      "uri": "textures/DARK_PLASTIC_POT_Mat_metallicRoughness.png"
    },
    {
      "uri": "textures/DARK_PLASTIC_POT_Mat_normal.jpeg"
    },
    {
      "uri": "textures/DARK_PLASTIC_POT_Mat_specularf0.png"
    },
    {
      "uri": "textures/DYPSIS_LUTESCENS_Mat_baseColor.png"
    },
    {
      "uri": "textures/DYPSIS_LUTESCENS_Mat_metallicRoughness.png"
    },
    {
      "uri": "textures/DYPSIS_LUTESCENS_Mat_normal.jpeg"
    }
  ],
  "materials": [
    {
      "doubleSided": true,
      "extensions": {
        "KHR_materials_specular": {
          "specularColorFactor": [
            1.0,
            1.0,
            1.0
          ],
          "specularFactor": 1.0,
          "specularTexture": {
            "index": 3
          }
        }
      },
      "name": "DARK_PLASTIC_POT_Mat",
      "normalTexture": {
        "index": 2
      },
      "pbrMetallicRoughness": {
        "baseColorTexture": {
          "index": 0
        },
        "metallicFactor": 0.0,
        "metallicRoughnessTexture": {
          "index": 1
        }
      }
    },
    {
      "alphaMode": "BLEND",
      "doubleSided": true,
      "name": "DYPSIS_LUTESCENS_Mat",
      "normalTexture": {
        "index": 6
      },
      "pbrMetallicRoughness": {
        "baseColorTexture": {
          "index": 4
        },
        "metallicFactor": 0.0,
        "metallicRoughnessTexture": {
          "index": 5
        }
      }
    }
  ],
  "meshes": [
    {
      "name": "DARK_PLASTIC_POT_DARK_PLASTIC_POT_Mat_0",
      "primitives": [
        {
          "attributes": {
            "NORMAL": 1,
            "POSITION": 0,
            "TANGENT": 2,
            "TEXCOORD_0": 3,
            "TEXCOORD_1": 4,
            "TEXCOORD_2": 5,
            "TEXCOORD_3": 6,
            "TEXCOORD_4": 7
          },
          "indices": 8,
          "material": 0,
          "mode": 4
        }
      ]
    },
    {
      "name": "DYPSIS_LUTESCENS_DYPSIS_LUTESCENS_Mat_0",
      "primitives": [
        {
          "attributes": {
            "NORMAL": 10,
            "POSITION": 9,
            "TANGENT": 11,
            "TEXCOORD_0": 12
          },
          "indices": 13,
          "material": 1,
          "mode": 4
        }
      ]
    }
  ],
  "nodes": [
    {
      "children": [
        1
      ],
      "matrix": [
        1.0,
        0.0,
        0.0,
        0.0,
        0.0,
        2.220446049250313e-16,
        -1.0,
        0.0,
        0.0,
        1.0,
        2.220446049250313e-16,
        0.0,
        0.0,
        0.0,
        0.0,
        1.0
      ],
      "name": "Sketchfab_model"
    },
    {
      "children": [
        2
      ],
      "matrix": [
        0.009999999776482582,
        0.0,
        0.0,
        0.0,
        0.0,
        0.0,
        0.009999999776482582,
        0.0,
        0.0,
        -0.009999999776482582,
        0.0,
        0.0,
        0.0,
        0.0,
        0.0,
        1.0
      ],
      "name": "b6d927b31a444a76bd7bed9d7c029cd2.fbx"
    },
    {
      "children": [
        3,
        5
      ],
      "name": "RootNode"
    },
    {
      "children": [
        4
      ],
      "matrix": [
        100.0,
        0.0,
        0.0,
        0.0,
        0.0,
        -1.629206793918314e-05,
        -99.99999999999868,
        0.0,
        0.0,
        99.99999999999868,
        -1.629206793918314e-05,
        0.0,
        0.0,
        0.0,
        0.0,
        1.0
      ],
      "name": "DARK_PLASTIC_POT"
    },
    {
      "mesh": 0,
      "name": "DARK_PLASTIC_POT_DARK_PLASTIC_POT_Mat_0"
    },
    {
      "children": [
        6
      ],
      "matrix": [
        100.0,
        0.0,
        0.0,
        0.0,
        0.0,
        -1.629206793918314e-05,
        -99.99999999999868,
        0.0,
        0.0,
        99.99999999999868,
        -1.629206793918314e-05,
        0.0,
        0.0,
        0.0,
        0.0,
        1.0
      ],
      "name": "DYPSIS_LUTESCENS"
    },
    {
      "mesh": 1,
      "name": "DYPSIS_LUTESCENS_DYPSIS_LUTESCENS_Mat_0"
    }
  ],
  "samplers": [
    {
      "magFilter": 9729,
      "minFilter": 9987,
      "wrapS": 10497,
      "wrapT": 10497
    }
  ],
  "scene": 0,
  "scenes": [
    {
      "name": "Sketchfab_Scene",
      "nodes": [
        0
      ]
    }
  ],
  "textures": [
    {
      "sampler": 0,
      "source": 0
    },
    {
      "sampler": 0,
      "source": 1
    },
    {
      "sampler": 0,
      "source": 2
    },
    {
      "sampler": 0,
      "source": 3
    },
    {
      "sampler": 0,
      "source": 4
    },
    {
      "sampler": 0,
      "source": 5
    },
    {
      "sampler": 0,
      "source": 6
    }
  ]
}
