{
  "accessors": [
    {
      "bufferView": 2,
      "componentType": 5126,
      "count": 283,
      "max": [
        2.851877212524414,
        0.1232241541147232,
        1.9095752239227295
      ],
      "min": [
        -0.039951782673597336,
        0.09102211892604828,
        0.0902319997549057
      ],
      "type": "VEC3"
    },
    {
      "bufferView": 2,
      "byteOffset": 3396,
      "componentType": 5126,
      "count": 283,
      "max": [
        0.9973025321960449,
        0.9974276423454285,
        0.9673113226890564
      ],
      "min": [
        -0.997302234172821,
        -0.9974274039268494,
        -0.980792760848999
      ],
      "type": "VEC3"
    },
    {
      "bufferView": 1,
      "componentType": 5126,
      "count": 283,
      "max": [
        0.89381343126297,
        0.9993661046028137
      ],
      "min": [
        0.006541511043906212,
        0.0006428634515032172
      ],
      "type": "VEC2"
    },
    {
      "bufferView": 1,
      "byteOffset": 2264,
      "componentType": 5126,
      "count": 283,
      "max": [
        0.5004575252532959,
        0.9995367527008057
      ],
      "min": [
        0.00044786231592297554,
        0.0004461923963390291
      ],
      "type": "VEC2"
    },
    {
      "bufferView": 1,
      "byteOffset": 4528,
      "componentType": 5126,
      "count": 283,
      "max": [
        0.89381343126297,
        0.9993661046028137
      ],
      "min": [
        0.006541511043906212,
        0.0006428634515032172
      ],
      "type": "VEC2"
    },
    {
      "bufferView": 0,
      "componentType": 5125,
      "count": 1206,
      "type": "SCALAR"
    },
    {
      "bufferView": 2,
      "byteOffset": 6792,
      "componentType": 5126,
      "count": 367,
      "max": [
        2.848149299621582,
        0.18622493743896484,
        1.7776463031768799
      ],
      "min": [
        -0.04024467617273331,
        0.030032463371753693,
        0.2223532646894455
      ],
      "type": "VEC3"
    },
    {
      "bufferView": 2,
      "byteOffset": 11196,
      "componentType": 5126,
      "count": 367,
      "max": [
        1.0,
        1.0,
        1.0
      ],
      "min": [
        -1.0,
        -1.0,
        -1.0
      ],
      "type": "VEC3"
    },
    {
      "bufferView": 3,
      "componentType": 5126,
      "count": 367,
      "max": [
        0.9862416386604309,
        0.9930351972579956,
        0.9681466817855835,
        1.0
      ],
      "min": [
        -0.9982951879501343,
        -0.9999998807907104,
        -0.9987626671791077,
        -1.0
      ],
      "type": "VEC4"
    },
    {
      "bufferView": 1,
      "byteOffset": 6792,
      "componentType": 5126,
      "count": 367,
      "max": [
        0.9625746011734009,
        0.9823713302612305
      ],
      "min": [
        0.5451506972312927,
        0.004951015114784241
      ],
      "type": "VEC2"
    },
    {
      "bufferView": 1,
      "byteOffset": 9728,
      "componentType": 5126,
      "count": 367,
      "max": [
        0.6207583546638489,
        0.3702338635921478
      ],
      "min": [
        0.49295830726623535,
        0.0006516824360005558
      ],
      "type": "VEC2"
    },
    {
      "bufferView": 1,
      "byteOffset": 12664,
      "componentType": 5126,
      "count": 367,
      "max": [
        0.9625746011734009,
        0.9823713302612305
      ],
      "min": [
        0.5451506972312927,
        0.004951015114784241
      ],
      "type": "VEC2"
    },
    {
      "bufferView": 1,
      "byteOffset": 15600,
      "componentType": 5126,
      "count": 367,
      "max": [
        0.9625746011734009,
        0.9823713302612305
      ],
      "min": [
        0.5451506972312927,
        0.004951015114784241
      ],
      "type": "VEC2"
    },
    {
      "bufferView": 0,
      "byteOffset": 4824,
      "componentType": 5125,
      "count": 1146,
      "type": "SCALAR"
    },
    {
      "bufferView": 2,
      "byteOffset": 15600,
      "componentType": 5126,
      "count": 8,
      "max": [
        2.819204330444336,
        0.1095491349697113,
        1.876902461051941
      ],
      "min": [
        0.017970561981201172,
        0.10469713807106018,
        0.1229047179222107
      ],
      "type": "VEC3"
    },
    {
      "bufferView": 2,
      "byteOffset": 15696,
      "componentType": 5126,
      "count": 8,
      "max": [
        0.0,
        1.0,
        0.0
      ],
      "min": [
        0.0,
        -1.0,
        0.0
      ],
      "type": "VEC3"
    },
    {
      "bufferView": 1,
      "byteOffset": 18536,
      "componentType": 5126,
      "count": 8,
      "max": [
        0.4916280508041382,
        0.6210217475891113
      ],
      "min": [
        0.10270840674638748,
        0.31149914860725403
      ],
      "type": "VEC2"
    },
    {
      "bufferView": 1,
      "byteOffset": 18600,
      "componentType": 5126,
      "count": 8,
      "max": [
        0.49674612283706665,
        0.31530457735061646
      ],
      "min": [
        0.10155568271875381,
        0.0004458392213564366
      ],
      "type": "VEC2"
    },
    {
      "bufferView": 0,
      "byteOffset": 9408,
      "componentType": 5125,
      "count": 12,
      "type": "SCALAR"
    },
    {
      "bufferView": 2,
      "byteOffset": 15792,
      "componentType": 5126,
      "count": 156,
      "max": [
        0.018075227737426758,
        0.09050668776035309,
        1.9095752239227295
      ],
      "min": [
        -2.848504066467285,
        0.05830464884638786,
        0.0902319997549057
      ],
      "type": "VEC3"
    },
    {
      "bufferView": 2,
      "byteOffset": 17664,
      "componentType": 5126,
      "count": 156,
      "max": [
        0.9672926068305969,
        0.9974274635314941,
        0.9673253893852234
      ],
      "min": [
        -0.9673005938529968,
        -0.9974276423454285,
        -0.9672921299934387
      ],
      "type": "VEC3"
    },
    {
      "bufferView": 1,
      "byteOffset": 18664,
      "componentType": 5126,
      "count": 156,
      "max": [
        0.09583881497383118,
        0.9949921369552612
      ],
      "min": [
        0.059685926884412766,
        0.0006564685027115047
      ],
      "type": "VEC2"
    },
    {
      "bufferView": 1,
      "byteOffset": 19912,
      "componentType": 5126,
      "count": 156,
      "max": [
        0.10066197067499161,
        0.9836352467536926
      ],
      "min": [
        0.04887053370475769,
        0.0004679737612605095
      ],
      "type": "VEC2"
    },
    {
      "bufferView": 1,
      "byteOffset": 21160,
      "componentType": 5126,
      "count": 156,
      "max": [
        0.09583881497383118,
        0.9949921369552612
      ],
      "min": [
        0.059685926884412766,
        0.0006564685027115047
      ],
      "type": "VEC2"
    },
    {
      "bufferView": 0,
      "byteOffset": 9456,
      "componentType": 5125,
      "count": 672,
      "type": "SCALAR"
    },
    {
      "bufferView": 2,
      "byteOffset": 19536,
      "componentType": 5126,
      "count": 346,
      "max": [
        -0.014597482979297638,
        0.1538228988647461,
        1.7776472568511963
      ],
      "min": [
        -2.844773530960083,
        -0.0023860782384872437,
        0.22235417366027832
      ],
      "type": "VEC3"
    },
    {
      "bufferView": 2,
      "byteOffset": 23688,
      "componentType": 5126,
      "count": 346,
      "max": [
        1.0,
        1.0,
        1.0
      ],
      "min": [
        -1.0,
        -1.0,
        -1.0
      ],
      "type": "VEC3"
    },
    {
      "bufferView": 3,
      "byteOffset": 5872,
      "componentType": 5126,
      "count": 346,
      "max": [
        0.9984148740768433,
        0.9999725222587585,
        0.983410120010376,
        1.0
      ],
      "min": [
        -0.9850081205368042,
        -0.9999998807907104,
        -0.976395845413208,
        1.0
      ],
      "type": "VEC4"
    },
    {
      "bufferView": 1,
      "byteOffset": 22408,
      "componentType": 5126,
      "count": 346,
      "max": [
        0.7185888290405273,
        0.4864509701728821
      ],
      "min": [
        0.49295833706855774,
        0.0006516601424664259
      ],
      "type": "VEC2"
    },
    {
      "bufferView": 1,
      "byteOffset": 25176,
      "componentType": 5126,
      "count": 346,
      "max": [
        0.5046206116676331,
        0.38594722747802734
      ],
      "min": [
        0.0,
        0.0
      ],
      "type": "VEC2"
    },
    {
      "bufferView": 1,
      "byteOffset": 27944,
      "componentType": 5126,
      "count": 346,
      "max": [
        0.7185888290405273,
        0.4864509701728821
      ],
      "min": [
        0.49295833706855774,
        0.0006516601424664259
      ],
      "type": "VEC2"
    },
    {
      "bufferView": 1,
      "byteOffset": 30712,
      "componentType": 5126,
      "count": 346,
      "max": [
        0.7185888290405273,
        0.4864509701728821
      ],
      "min": [
        0.49295833706855774,
        0.0006516601424664259
      ],
      "type": "VEC2"
    },
    {
      "bufferView": 0,
      "byteOffset": 12144,
      "componentType": 5125,
      "count": 1068,
      "type": "SCALAR"
    },
    {
      "bufferView": 2,
      "byteOffset": 27840,
      "componentType": 5126,
      "count": 8,
      "max": [
        -0.014597535133361816,
        0.07683166861534119,
        1.876902461051941
      ],
      "min": [
        -2.815831422805786,
        0.07197967171669006,
        0.1229047179222107
      ],
      "type": "VEC3"
    },
    {
      "bufferView": 2,
      "byteOffset": 27936,
      "componentType": 5126,
      "count": 8,
      "max": [
        0.0,
        1.0,
        0.0
      ],
      "min": [
        0.0,
        -1.0,
        0.0
      ],
      "type": "VEC3"
    },
    {
      "bufferView": 1,
      "byteOffset": 33480,
      "componentType": 5126,
      "count": 8,
      "max": [
        0.49165499210357666,
        0.31019580364227295
      ],
      "min": [
        0.10270839929580688,
        0.0006516669527627528
      ],
      "type": "VEC2"
    },
    {
      "bufferView": 1,
      "byteOffset": 33544,
      "componentType": 5126,
      "count": 8,
      "max": [
        0.4966837465763092,
        0.6310052275657654
      ],
      "min": [
        0.10155567526817322,
        0.3161962628364563
      ],
      "type": "VEC2"
    },
    {
      "bufferView": 0,
      "byteOffset": 16416,
      "componentType": 5125,
      "count": 12,
      "type": "SCALAR"
    },
    {
      "bufferView": 2,
      "byteOffset": 28032,
      "componentType": 5126,
      "count": 2129,
      "max": [
        2.8987526893615723,
        0.14060688018798828,
        1.9521114826202393
      ],
      "min": [
        -2.8987526893615723,
        0.04060697555541992,
        0.04175502061843872
      ],
      "type": "VEC3"
    },
    {
      "bufferView": 2,
      "byteOffset": 53580,
      "componentType": 5126,
      "count": 2129,
      "max": [
        1.0,
        1.0,
        1.0
      ],
      "min": [
        -1.0,
        -1.0,
        -1.0
      ],
      "type": "VEC3"
    },
    {
      "bufferView": 1,
      "byteOffset": 33608,
      "componentType": 5126,
      "count": 2129,
      "max": [
        0.649979829788208,
        0.5906873941421509
      ],
      "min": [
        0.4929313659667969,
        0.31149908900260925
      ],
      "type": "VEC2"
    },
    {
      "bufferView": 1,
      "byteOffset": 50640,
      "componentType": 5126,
      "count": 2129,
      "max": [
        3.3987526893615723,
        1.6576991081237793
      ],
      "min": [
        -2.3987526893615723,
        -0.252657413482666
      ],
      "type": "VEC2"
    },
    {
      "bufferView": 1,
      "byteOffset": 67672,
      "componentType": 5126,
      "count": 2129,
      "max": [
        0.649979829788208,
        0.5906873941421509
      ],
      "min": [
        0.4929313659667969,
        0.31149908900260925
      ],
      "type": "VEC2"
    },
    {
      "bufferView": 0,
      "byteOffset": 16464,
      "componentType": 5125,
      "count": 7188,
      "type": "SCALAR"
    }
  ],
  "asset": {
    "extras": {
      "author": "Noboa (https://sketchfab.com/Noboaro21)",
      "license": "CC-BY-4.0 (http://creativecommons.org/licenses/by/4.0/)",
      "source": "https://sketchfab.com/3d-models/glass-window-78304a59c24a433894140dbe43ff66bc",
      "title": "glass window"
    },
    "generator": "Sketchfab-16.74.0",
    "version": "2.0"
  },
  "bufferViews": [
    {
      "buffer": 0,
      "byteLength": 45216,
      "name": "floatBufferViews",
      "target": 34963
    },
    {
      "buffer": 0,
      "byteLength": 84704,
      "byteOffset": 45216,
      "byteStride": 8,
      "name": "floatBufferViews",
      "target": 34962
    },
    {
      "buffer": 0,
      "byteLength": 79128,
      "byteOffset": 129920,
      "byteStride": 12,
      "name": "floatBufferViews",
      "target": 34962
    },
    {
      "buffer": 0,
      "byteLength": 11408,
      "byteOffset": 209048,
      "byteStride": 16,
      "name": "floatBufferViews",
      "target": 34962
    }
  ],
  "buffers": [
    {
      "byteLength": 220456,
      "uri": "scene.bin"
    }
  ],
  "images": [
    {
      "uri": "textures/White_Metal_Texture_baseColor.jpeg"
    },
    {
      "uri": "textures/White_Metal_Texture_metallicRoughness.png"
    },
    {
      "uri": "textures/Metallic_Gold_Texture_baseColor.jpeg"
    },
    {
      "uri": "textures/Metallic_Gold_Texture_metallicRoughness.png"
    },
    {
      "uri": "textures/Metallic_Gold_Texture_normal.png"
    }
  ],
  "materials": [
    {
      "doubleSided": true,
      "name": "White_Metal_Texture",
      "pbrMetallicRoughness": {
        "baseColorTexture": {
          "index": 0
        },
        "metallicRoughnessTexture": {
          "index": 1
        }
      }
    },
    {
      "doubleSided": true,
      "name": "Metallic_Gold_Texture",
      "normalTexture": {
        "index": 4
      },
      "pbrMetallicRoughness": {
        "baseColorTexture": {
          "index": 2
        },
        "metallicRoughnessTexture": {
          "index": 3
        }
      }
    },
    {
      "alphaMode": "BLEND",
      "doubleSided": true,
      "name": "glass",
      "pbrMetallicRoughness": {
        "baseColorFactor": [
          0.2814536154568642,
          0.20471420628191583,
          0.8819676298502624,
          0.07864545737805206
        ],
        "metallicFactor": 0.0,
        "roughnessFactor": 0.19595917942265426
      }
    }
  ],
  "meshes": [
    {
      "name": "Window_White Metal Texture_0",
      "primitives": [
        {
          "attributes": {
            "NORMAL": 1,
            "POSITION": 0,
            "TEXCOORD_0": 2,
            "TEXCOORD_1": 3,
            "TEXCOORD_2": 4
          },
          "indices": 5,
          "material": 0,
          "mode": 4
        }
      ]
    },
    {
      "name": "Window_Metallic Gold Texture_0",
      "primitives": [
        {
          "attributes": {
            "NORMAL": 7,
            "POSITION": 6,
            "TANGENT": 8,
            "TEXCOORD_0": 9,
            "TEXCOORD_1": 10,
            "TEXCOORD_2": 11,
            "TEXCOORD_3": 12
          },
          "indices": 13,
          "material": 1,
          "mode": 4
        }
      ]
    },
    {
      "name": "Window_glass_0",
      "primitives": [
        {
          "attributes": {
            "NORMAL": 15,
            "POSITION": 14,
            "TEXCOORD_0": 16,
            "TEXCOORD_1": 17
          },
          "indices": 18,
          "material": 2,
          "mode": 4
        }
      ]
    },
    {
      "name": "Window2_White Metal Texture_0",
      "primitives": [
        {
          "attributes": {
            "NORMAL": 20,
            "POSITION": 19,
            "TEXCOORD_0": 21,
            "TEXCOORD_1": 22,
            "TEXCOORD_2": 23
          },
          "indices": 24,
          "material": 0,
          "mode": 4
        }
      ]
    },
    {
      "name": "Window2_Metallic Gold Texture_0",
      "primitives": [
        {
          "attributes": {
            "NORMAL": 26,
            "POSITION": 25,
            "TANGENT": 27,
            "TEXCOORD_0": 28,
            "TEXCOORD_1": 29,
            "TEXCOORD_2": 30,
            "TEXCOORD_3": 31
          },
          "indices": 32,
          "material": 1,
          "mode": 4
        }
      ]
    },
    {
      "name": "Window2_glass_0",
      "primitives": [
        {
          "attributes": {
            "NORMAL": 34,
            "POSITION": 33,
            "TEXCOORD_0": 35,
            "TEXCOORD_1": 36
          },
          "indices": 37,
          "material": 2,
          "mode": 4
        }
      ]
    },
    {
      "name": "Wndow Frame_White Metal Texture_0",
      "primitives": [
        {
          "attributes": {
            "NORMAL": 39,
            "POSITION": 38,
            "TEXCOORD_0": 40,
            "TEXCOORD_1": 41,
            "TEXCOORD_2": 42
          },
          "indices": 43,
          "material": 0,
          "mode": 4
        }
      ]
    }
  ],
  "nodes": [
    {
      "children": [
        1
      ],
      "matrix": [
        1.0,
        0.0,
        0.0,
        0.0,
        0.0,
        2.220446049250313e-16,
        -1.0,
        0.0,
        0.0,
        1.0,
        2.220446049250313e-16,
        0.0,
        0.0,
        0.0,
        0.0,
        1.0
      ],
      "name": "Sketchfab_model"
    },
    {
      "children": [
        2
      ],
      "matrix": [
        0.009999999776482582,
        0.0,
        0.0,
        0.0,
        0.0,
        0.0,
        0.009999999776482582,
        0.0,
        0.0,
        -0.009999999776482582,
        0.0,
        0.0,
        0.0,
        0.0,
        0.0,
        1.0
      ],
      "name": "Windows.fbx"
    },
    {
      "children": [
        3,
        7,
        11
      ],
      "name": "RootNode"
    },
    {
      "children": [
        4,
        5,
        6
      ],
      "matrix": [
        100.0,
        0.0,
        0.0,
        0.0,
        0.0,
        -1.629206793918314e-05,
        -99.99999999999868,
        0.0,
        0.0,
        99.99999999999868,
        -1.629206793918314e-05,
        0.0,
        0.0,
        0.0,
        0.0,
        1.0
      ],
      "name": "Window"
    },
    {
      "mesh": 0,
      "name": "Window_White Metal Texture_0"
    },
    {
      "mesh": 1,
      "name": "Window_Metallic Gold Texture_0"
    },
    {
      "mesh": 2,
      "name": "Window_glass_0"
    },
    {
      "children": [
        8,
        9,
        10
      ],
      "matrix": [
        100.0,
        0.0,
        0.0,
        0.0,
        0.0,
        -1.629206793918314e-05,
        -99.99999999999868,
        0.0,
        0.0,
        99.99999999999868,
        -1.629206793918314e-05,
        0.0,
        0.0,
        0.0,
        0.0,
        1.0
      ],
      "name": "Window2"
    },
    {
      "mesh": 3,
      "name": "Window2_White Metal Texture_0"
    },
    {
      "mesh": 4,
      "name": "Window2_Metallic Gold Texture_0"
    },
    {
      "mesh": 5,
      "name": "Window2_glass_0"
    },
    {
      "children": [
        12
      ],
      "matrix": [
        100.0,
        0.0,
        0.0,
        0.0,
        0.0,
        -1.629206793918314e-05,
        -99.99999999999868,
        0.0,
        0.0,
        99.99999999999868,
        -1.629206793918314e-05,
        0.0,
        0.0,
        0.0,
        0.0,
        1.0
      ],
      "name": "Wndow Frame"
    },
    {
      "mesh": 6,
      "name": "Wndow Frame_White Metal Texture_0"
    }
  ],
  "samplers": [
    {
      "magFilter": 9729,
      "minFilter": 9987,
      "wrapS": 10497,
      "wrapT": 10497
    }
  ],
  "scene": 0,
  "scenes": [
    {
      "name": "Sketchfab_Scene",
      "nodes": [
        0
      ]
    }
  ],
  "textures": [
    {
      "sampler": 0,
      "source": 0
    },
    {
      "sampler": 0,
      "source": 1
    },
    {
      "sampler": 0,
      "source": 2
    },
    {
      "sampler": 0,
      "source": 3
    },
    {
      "sampler": 0,
      "source": 4
    }
  ]
}
